<svg width="400" height="300" viewBox="0 0 400 300" fill="none" xmlns="http://www.w3.org/2000/svg">
  <rect width="400" height="300" rx="28" fill="url(#paint0_linear)"/>
  <g filter="url(#filter0_d)">
    <path d="M200 80C236 80 265 109 265 145C265 193 221 225 200 236C179 225 135 193 135 145C135 109 164 80 200 80Z" fill="white"/>
    <path d="M200 96C228 96 250 118 250 146C250 188 208 213 200 217C192 213 150 188 150 146C150 118 172 96 200 96Z" fill="#FFCFD2"/>
    <circle cx="180" cy="140" r="16" fill="#FF7B9C"/>
    <circle cx="220" cy="140" r="16" fill="#FFA4C5"/>
    <rect x="190" y="180" width="20" height="12" rx="6" fill="#FFDDE4"/>
  </g>
  <defs>
    <filter id="filter0_d" x="105" y="60" width="190" height="196" filterUnits="userSpaceOnUse" color-interpolation-filters="sRGB">
      <feFlood flood-opacity="0" result="BackgroundImageFix"/>
      <feColorMatrix in="SourceAlpha" type="matrix" values="0 0 0 0 0 0 0 0 0 0 0 0 0 0 0 0 0 0 127 0" result="hardAlpha"/>
      <feOffset dy="10"/>
      <feGaussianBlur stdDeviation="14"/>
      <feColorMatrix type="matrix" values="0 0 0 0 0.69 0 0 0 0 0.27 0 0 0 0 0.35 0 0 0 0.18 0"/>
      <feBlend mode="normal" in2="BackgroundImageFix" result="effect1_dropShadow"/>
      <feBlend mode="normal" in="SourceGraphic" in2="effect1_dropShadow" result="shape"/>
    </filter>
    <linearGradient id="paint0_linear" x1="80" y1="40" x2="340" y2="260" gradientUnits="userSpaceOnUse">
      <stop stop-color="#FF92B5"/>
      <stop offset="1" stop-color="#FF4C7A"/>
    </linearGradient>
  </defs>
</svg>
