<svg width="640" height="480" viewBox="0 0 640 480" fill="none" xmlns="http://www.w3.org/2000/svg">
  <defs>
    <linearGradient id="bg" x1="0" y1="0" x2="1" y2="1">
      <stop offset="0%" stop-color="#0B5D61" />
      <stop offset="100%" stop-color="#0FBF6D" />
    </linearGradient>
    <linearGradient id="body" x1="0" y1="0" x2="0" y2="1">
      <stop offset="0%" stop-color="#F5F9FF" />
      <stop offset="100%" stop-color="#DDE7F5" />
    </linearGradient>
  </defs>
  <rect width="640" height="480" rx="48" fill="url(#bg)" />
  <g filter="url(#shadow2)">
    <path d="M192 170c0-22.091 17.909-40 40-40h96c22.091 0 40 17.909 40 40v140h-176V170z" fill="url(#body)" />
  </g>
  <path d="M208 182c0-12.15 9.85-22 22-22h78c12.15 0 22 9.85 22 22v104h-122V182z" fill="#FFFFFF" opacity="0.95" />
  <rect x="240" y="296" width="48" height="80" rx="16" fill="#0FBF6D" />
  <rect x="296" y="296" width="48" height="80" rx="16" fill="#0FBF6D" opacity="0.65" />
  <rect x="216" y="210" width="160" height="40" rx="18" fill="#0FBF6D" opacity="0.85" />
  <rect x="320" y="162" width="28" height="44" rx="12" fill="#0B5D61" />
  <defs>
    <filter id="shadow2" x="140" y="110" width="280" height="260" color-interpolation-filters="sRGB" filterUnits="userSpaceOnUse">
      <feDropShadow dx="0" dy="18" stdDeviation="28" flood-color="#052F3B" flood-opacity="0.28" />
    </filter>
  </defs>
</svg>
