<svg width="640" height="480" viewBox="0 0 640 480" fill="none" xmlns="http://www.w3.org/2000/svg">
  <defs>
    <linearGradient id="lip2-bg" x1="0" y1="0" x2="1" y2="1">
      <stop offset="0%" stop-color="#F43F5E" />
      <stop offset="100%" stop-color="#BE123C" />
    </linearGradient>
  </defs>
  <rect width="640" height="480" rx="48" fill="url(#lip2-bg)" />
  <g opacity="0.2">
    <circle cx="160" cy="140" r="80" fill="#FDBA74" />
    <circle cx="520" cy="120" r="96" fill="#FB7185" />
    <circle cx="500" cy="340" r="110" fill="#F472B6" />
    <circle cx="200" cy="360" r="120" fill="#FB7185" />
  </g>
  <g transform="translate(0,12)">
    <rect x="184" y="172" width="72" height="224" rx="32" fill="#FDF2F8" opacity="0.85" />
    <rect x="192" y="180" width="56" height="132" rx="28" fill="#F8B4D9" />
    <rect x="204" y="188" width="32" height="116" rx="16" fill="#F97316" opacity="0.7" />
  </g>
  <g transform="translate(88,0)">
    <rect x="240" y="132" width="72" height="264" rx="32" fill="#FDF2F8" opacity="0.9" />
    <rect x="248" y="144" width="56" height="176" rx="28" fill="#FB7185" opacity="0.9" />
    <rect x="262" y="164" width="28" height="136" rx="14" fill="#F43F5E" />
  </g>
  <g transform="translate(180,-4)">
    <rect x="272" y="188" width="72" height="224" rx="32" fill="#FDF2F8" opacity="0.9" />
    <rect x="280" y="204" width="56" height="140" rx="28" fill="#F97316" opacity="0.8" />
    <rect x="294" y="224" width="28" height="96" rx="14" fill="#FB7185" opacity="0.85" />
  </g>
  <ellipse cx="320" cy="402" rx="180" ry="32" fill="#9F1239" opacity="0.3" />
</svg>
