<svg width="640" height="480" viewBox="0 0 640 480" fill="none" xmlns="http://www.w3.org/2000/svg">
  <defs>
    <linearGradient id="lip-bg" x1="0" y1="0" x2="1" y2="1">
      <stop offset="0%" stop-color="#F472B6" />
      <stop offset="100%" stop-color="#EC4899" />
    </linearGradient>
    <linearGradient id="lip-body" x1="0" y1="0" x2="0" y2="1">
      <stop offset="0%" stop-color="#FFE4EC" />
      <stop offset="100%" stop-color="#FFD1E0" />
    </linearGradient>
    <linearGradient id="lip-bullet" x1="0" y1="0" x2="0" y2="1">
      <stop offset="0%" stop-color="#F97316" />
      <stop offset="100%" stop-color="#F43F5E" />
    </linearGradient>
  </defs>
  <rect width="640" height="480" rx="48" fill="url(#lip-bg)" />
  <g filter="url(#lip-shadow)">
    <rect x="180" y="120" width="280" height="280" rx="56" fill="url(#lip-body)" />
  </g>
  <rect x="208" y="156" width="224" height="224" rx="48" fill="#FFFFFF" opacity="0.9" />
  <g transform="translate(0,-8)">
    <rect x="248" y="176" width="48" height="176" rx="24" fill="#F8B4D9" />
    <rect x="248" y="192" width="48" height="148" rx="24" fill="#FDF2F8" />
    <path d="M248 192c0-26.51 21.49-48 48-48h0c26.51 0 48 21.49 48 48v28h-96v-28z" fill="#FDBA74" />
    <rect x="248" y="200" width="96" height="20" rx="10" fill="#F97316" opacity="0.7" />
    <path d="M272 172c0-12.15 9.85-22 22-22s22 9.85 22 22v18h-44v-18z" fill="url(#lip-bullet)" />
  </g>
  <g transform="translate(96,12)">
    <rect x="248" y="176" width="48" height="176" rx="24" fill="#F9A8D4" />
    <rect x="248" y="196" width="48" height="148" rx="24" fill="#FDF2F8" />
    <path d="M248 196c0-26.51 21.49-48 48-48s48 21.49 48 48v24h-96v-24z" fill="#FB7185" />
    <rect x="248" y="206" width="96" height="18" rx="9" fill="#F43F5E" opacity="0.75" />
    <path d="M272 180c0-12.15 9.85-22 22-22s22 9.85 22 22v16h-44v-16z" fill="#F43F5E" opacity="0.95" />
  </g>
  <g transform="translate(-96,16)">
    <rect x="248" y="176" width="48" height="176" rx="24" fill="#FBCFE8" />
    <rect x="248" y="198" width="48" height="148" rx="24" fill="#FDF2F8" />
    <path d="M248 198c0-26.51 21.49-48 48-48s48 21.49 48 48v26h-96v-26z" fill="#F97316" opacity="0.85" />
    <rect x="248" y="208" width="96" height="16" rx="8" fill="#FB7185" opacity="0.65" />
    <path d="M272 184c0-12.15 9.85-22 22-22s22 9.85 22 22v18h-44v-18z" fill="#FB7185" opacity="0.95" />
  </g>
  <ellipse cx="320" cy="386" rx="140" ry="26" fill="#F472B6" opacity="0.3" />
  <defs>
    <filter id="lip-shadow" x="120" y="76" width="400" height="360" color-interpolation-filters="sRGB" filterUnits="userSpaceOnUse">
      <feDropShadow dx="0" dy="18" stdDeviation="28" flood-color="#BE185D" flood-opacity="0.25" />
    </filter>
  </defs>
</svg>
